<?xml version="1.0" standalone="no"?>
<!DOCTYPE svg PUBLIC "-//W3C//DTD SVG 20010904//EN"
 "http://www.w3.org/TR/2001/REC-SVG-20010904/DTD/svg10.dtd">
<svg version="1.0" xmlns="http://www.w3.org/2000/svg"
 width="345.000000pt" height="69.000000pt" viewBox="0 0 345.000000 69.000000"
 preserveAspectRatio="xMidYMid meet">

<g transform="translate(0.000000,69.000000) scale(0.100000,-0.100000)"
fill="#000000" stroke="none">
<path d="M10 608 l0 -82 100 -101 100 -102 0 -162 0 -162 43 3 42 3 3 160 3
160 94 100 94 100 1 83 0 82 -45 0 -45 0 0 -68 0 -68 -68 -67 c-37 -37 -72
-67 -78 -67 -5 0 -42 33 -82 73 l-72 72 0 63 0 62 -45 0 -45 0 0 -82z"/>
<path d="M772 683 c-7 -3 -49 -76 -92 -164 l-80 -159 0 -180 0 -180 45 0 45 0
0 100 0 100 150 0 150 0 0 -100 0 -100 45 0 45 0 0 180 0 180 -79 159 c-44 87
-87 161 -96 165 -19 7 -114 7 -133 -1z m153 -223 c36 -71 65 -139 65 -150 0
-19 -6 -20 -150 -20 -144 0 -150 1 -150 20 0 11 29 79 65 150 51 101 70 130
85 130 15 0 34 -29 85 -130z"/>
<path d="M1172 643 l3 -48 208 -3 c189 -2 207 -4 207 -20 0 -9 -88 -105 -195
-212 l-195 -195 0 -82 0 -83 245 0 245 0 0 50 0 50 -200 0 c-151 0 -200 3
-200 12 0 7 90 103 200 213 l200 201 0 82 0 82 -261 0 -260 0 3 -47z"/>
<path d="M1770 640 l0 -50 205 0 c189 0 205 -1 205 -18 0 -9 -88 -105 -195
-212 l-195 -195 0 -82 0 -83 245 0 245 0 0 50 0 50 -200 0 c-146 0 -200 3
-200 12 0 6 90 102 200 213 l201 202 -3 79 -3 79 -252 3 -253 2 0 -50z"/>
<path d="M2450 668 c-76 -39 -80 -57 -80 -321 0 -254 5 -278 64 -320 28 -20
45 -22 166 -25 153 -3 187 7 227 67 22 33 23 41 23 276 0 235 -1 243 -23 276
-38 57 -75 69 -212 69 -106 0 -126 -3 -165 -22z m298 -90 c8 -8 12 -59 12
-162 l0 -151 -146 147 c-105 104 -145 151 -141 162 5 14 26 16 135 16 86 0
132 -4 140 -12z m-129 -302 c178 -178 178 -176 -10 -176 -117 0 -129 2 -139
19 -11 22 -14 301 -2 301 4 0 72 -65 151 -144z"/>
<path d="M2960 345 l0 -345 45 0 45 0 0 150 0 150 77 0 78 0 72 -72 73 -72 0
-78 0 -78 50 0 50 0 0 91 0 90 -57 60 c-31 32 -54 60 -52 62 2 1 17 9 32 17
40 20 66 69 73 137 12 113 -24 194 -99 222 -16 6 -105 11 -208 11 l-179 0 0
-345z m378 233 c7 -7 12 -41 12 -84 0 -103 -1 -104 -166 -104 l-134 0 0 100 0
100 138 0 c94 0 142 -4 150 -12z"/>
</g>
</svg>
